<svg width="155" height="19" viewBox="0 0 155 19" fill="none" xmlns="http://www.w3.org/2000/svg">
<path d="M2.82955 0.545454L8.01136 15.2386H8.21591L13.3977 0.545454H15.6136L9.20455 18H7.02273L0.613636 0.545454H2.82955ZM22.3295 18.2727C21.0682 18.2727 19.9801 17.9943 19.0653 17.4375C18.1562 16.875 17.4545 16.0909 16.9602 15.0852C16.4716 14.0739 16.2273 12.8977 16.2273 11.5568C16.2273 10.2159 16.4716 9.03409 16.9602 8.01136C17.4545 6.98295 18.142 6.18182 19.0227 5.60795C19.9091 5.02841 20.9432 4.73864 22.125 4.73864C22.8068 4.73864 23.4801 4.85227 24.1449 5.07954C24.8097 5.30682 25.4148 5.67614 25.9602 6.1875C26.5057 6.69318 26.9403 7.36364 27.2642 8.19886C27.5881 9.03409 27.75 10.0625 27.75 11.2841V12.1364H17.6591V10.3977H25.7045C25.7045 9.65909 25.5568 9 25.2614 8.42045C24.9716 7.84091 24.5568 7.38352 24.017 7.0483C23.483 6.71307 22.8523 6.54545 22.125 6.54545C21.3239 6.54545 20.6307 6.74432 20.0455 7.14205C19.4659 7.53409 19.0199 8.04545 18.7074 8.67614C18.3949 9.30682 18.2386 9.98295 18.2386 10.7045V11.8636C18.2386 12.8523 18.4091 13.6903 18.75 14.3778C19.0966 15.0597 19.5767 15.5795 20.1903 15.9375C20.804 16.2898 21.517 16.4659 22.3295 16.4659C22.858 16.4659 23.3352 16.392 23.7614 16.2443C24.1932 16.0909 24.5653 15.8636 24.8778 15.5625C25.1903 15.2557 25.4318 14.875 25.6023 14.4205L27.5455 14.9659C27.3409 15.625 26.9972 16.2045 26.5142 16.7045C26.0313 17.1989 25.4347 17.5852 24.7244 17.8636C24.0142 18.1364 23.2159 18.2727 22.3295 18.2727ZM35.7528 18.2727C34.6619 18.2727 33.6989 17.9972 32.8636 17.446C32.0284 16.8892 31.375 16.1051 30.9034 15.0938C30.4318 14.0767 30.196 12.875 30.196 11.4886C30.196 10.1136 30.4318 8.92045 30.9034 7.90909C31.375 6.89773 32.0313 6.11648 32.8722 5.56534C33.7131 5.0142 34.6847 4.73864 35.7869 4.73864C36.6392 4.73864 37.3125 4.88068 37.8068 5.16477C38.3068 5.44318 38.6875 5.76136 38.9489 6.11932C39.2159 6.47159 39.4233 6.76136 39.571 6.98864H39.7415V0.545454H41.7528V18H39.8097V15.9886H39.571C39.4233 16.2273 39.2131 16.5284 38.9403 16.892C38.6676 17.25 38.2784 17.571 37.7727 17.8551C37.267 18.1335 36.5938 18.2727 35.7528 18.2727ZM36.0256 16.4659C36.8324 16.4659 37.5142 16.2557 38.071 15.8352C38.6278 15.4091 39.0511 14.821 39.3409 14.071C39.6307 13.3153 39.7756 12.4432 39.7756 11.4545C39.7756 10.4773 39.6335 9.62216 39.3494 8.8892C39.0653 8.15057 38.6449 7.5767 38.0881 7.16761C37.5313 6.75284 36.8438 6.54545 36.0256 6.54545C35.1733 6.54545 34.4631 6.7642 33.8949 7.2017C33.3324 7.63352 32.9091 8.22159 32.625 8.96591C32.3466 9.70455 32.2074 10.5341 32.2074 11.4545C32.2074 12.3864 32.3494 13.233 32.6335 13.9943C32.9233 14.75 33.3494 15.3523 33.9119 15.8011C34.4801 16.2443 35.1847 16.4659 36.0256 16.4659ZM49.5682 18.3068C48.7386 18.3068 47.9858 18.1506 47.3097 17.8381C46.6335 17.5199 46.0966 17.0625 45.6989 16.4659C45.3011 15.8636 45.1023 15.1364 45.1023 14.2841C45.1023 13.5341 45.25 12.9261 45.5455 12.4602C45.8409 11.9886 46.2358 11.6193 46.7301 11.3523C47.2244 11.0852 47.7699 10.8864 48.3665 10.7557C48.9688 10.6193 49.5739 10.5114 50.1818 10.4318C50.9773 10.3295 51.6222 10.2528 52.1165 10.2017C52.6165 10.1449 52.9801 10.0511 53.2074 9.92045C53.4403 9.78977 53.5568 9.5625 53.5568 9.23864V9.17045C53.5568 8.32955 53.3267 7.67614 52.8665 7.21023C52.4119 6.74432 51.7216 6.51136 50.7955 6.51136C49.8352 6.51136 49.0824 6.72159 48.5369 7.14205C47.9915 7.5625 47.608 8.01136 47.3864 8.48864L45.4773 7.80682C45.8182 7.01136 46.2727 6.39205 46.8409 5.94886C47.4148 5.5 48.0398 5.1875 48.7159 5.01136C49.3977 4.82955 50.0682 4.73864 50.7273 4.73864C51.1477 4.73864 51.6307 4.78977 52.1761 4.89204C52.7273 4.98864 53.2585 5.19034 53.7699 5.49716C54.2869 5.80398 54.7159 6.26705 55.0568 6.88636C55.3977 7.50568 55.5682 8.33523 55.5682 9.375V18H53.5568V16.2273H53.4545C53.3182 16.5114 53.0909 16.8153 52.7727 17.1392C52.4545 17.4631 52.0313 17.7386 51.5028 17.9659C50.9744 18.1932 50.3295 18.3068 49.5682 18.3068ZM49.875 16.5C50.6705 16.5 51.3409 16.3438 51.8864 16.0312C52.4375 15.7188 52.8523 15.3153 53.1307 14.821C53.4148 14.3267 53.5568 13.8068 53.5568 13.2614V11.4205C53.4716 11.5227 53.2841 11.6165 52.9943 11.7017C52.7102 11.7812 52.3807 11.8523 52.0057 11.9148C51.6364 11.9716 51.2756 12.0227 50.9233 12.0682C50.5767 12.108 50.2955 12.142 50.0795 12.1705C49.5568 12.2386 49.0682 12.3494 48.6136 12.5028C48.1648 12.6506 47.8011 12.875 47.5227 13.1761C47.25 13.4716 47.1136 13.875 47.1136 14.3864C47.1136 15.0852 47.3722 15.6136 47.8892 15.9716C48.4119 16.3239 49.0739 16.5 49.875 16.5ZM61.2507 10.125V18H59.2393V4.90909H61.1825V6.95455H61.353C61.6598 6.28977 62.1257 5.75568 62.7507 5.35227C63.3757 4.94318 64.1825 4.73864 65.1712 4.73864C66.0575 4.73864 66.8331 4.92045 67.4979 5.28409C68.1626 5.64205 68.6797 6.1875 69.049 6.92045C69.4183 7.64773 69.603 8.56818 69.603 9.68182V18H67.5916V9.81818C67.5916 8.78977 67.3246 7.98864 66.7905 7.41477C66.2564 6.83523 65.5234 6.54545 64.5916 6.54545C63.9496 6.54545 63.3757 6.68466 62.87 6.96307C62.37 7.24148 61.9751 7.64773 61.6854 8.18182C61.3956 8.71591 61.2507 9.36364 61.2507 10.125ZM78.9716 4.90909V6.61364H72.1875V4.90909H78.9716ZM74.1648 1.77273H76.1761V14.25C76.1761 14.8182 76.2585 15.2443 76.4233 15.5284C76.5938 15.8068 76.8097 15.9943 77.071 16.0909C77.3381 16.1818 77.6193 16.2273 77.9148 16.2273C78.1364 16.2273 78.3182 16.2159 78.4602 16.1932C78.6023 16.1648 78.7159 16.142 78.8011 16.125L79.2102 17.9318C79.0739 17.983 78.8835 18.0341 78.6392 18.0852C78.3949 18.142 78.0852 18.1705 77.7102 18.1705C77.142 18.1705 76.5852 18.0483 76.0398 17.804C75.5 17.5597 75.0511 17.1875 74.6932 16.6875C74.3409 16.1875 74.1648 15.5568 74.1648 14.7955V1.77273Z" fill="white"/>
<path d="M92.3267 18L87.5284 0.545454H88.6364L92.8977 16.3551H93L97.1932 0.545454H98.4886L102.682 16.3551H102.784L107.045 0.545454H108.145L103.347 18H102.119L97.8835 2.29261H97.7898L93.554 18H92.3267ZM110.109 18V4.90909H111.124V6.95455H111.217C111.501 6.28409 111.982 5.74716 112.658 5.34375C113.334 4.93466 114.104 4.73011 114.967 4.73011C115.058 4.73011 115.149 4.73011 115.24 4.73011C115.331 4.73011 115.416 4.73295 115.496 4.73864V5.78693C115.428 5.78125 115.345 5.77273 115.249 5.76136C115.158 5.74432 115.044 5.73579 114.908 5.73579C114.18 5.73579 113.533 5.89204 112.964 6.20455C112.402 6.51705 111.959 6.94886 111.635 7.5C111.311 8.04545 111.149 8.67045 111.149 9.375V18H110.109ZM118.34 18V4.90909H119.371V18H118.34ZM118.86 2.59091C118.633 2.59091 118.434 2.51136 118.263 2.35227C118.099 2.19318 118.016 2 118.016 1.77273C118.016 1.54545 118.099 1.35227 118.263 1.19318C118.428 1.03409 118.627 0.954545 118.86 0.954545C119.087 0.954545 119.283 1.03409 119.448 1.19318C119.619 1.35227 119.704 1.54545 119.704 1.77273C119.704 2 119.621 2.19318 119.457 2.35227C119.292 2.51136 119.093 2.59091 118.86 2.59091ZM128.354 4.90909V5.83807H122.636V4.90909H128.354ZM124.57 1.77273H125.602V14.9062C125.602 15.4403 125.704 15.8778 125.908 16.2188C126.119 16.554 126.391 16.804 126.727 16.9688C127.067 17.1278 127.431 17.2074 127.817 17.2074C128.005 17.2074 128.167 17.1932 128.303 17.1648C128.445 17.1364 128.579 17.0994 128.704 17.054L128.96 18C128.8 18.0568 128.624 18.1051 128.431 18.1449C128.238 18.1903 128.011 18.2131 127.749 18.2131C127.204 18.2131 126.687 18.0909 126.198 17.8466C125.715 17.6023 125.323 17.2472 125.022 16.7812C124.721 16.3153 124.57 15.7528 124.57 15.0938V1.77273ZM137.175 18.2727C135.994 18.2727 134.965 17.9801 134.09 17.3949C133.215 16.8097 132.539 16.0085 132.062 14.9915C131.585 13.9744 131.346 12.8153 131.346 11.5142C131.346 10.2074 131.585 9.04261 132.062 8.01989C132.545 6.99716 133.207 6.19034 134.048 5.59943C134.888 5.00852 135.849 4.71307 136.928 4.71307C137.661 4.71307 138.354 4.8608 139.008 5.15625C139.667 5.44602 140.246 5.86648 140.746 6.41761C141.252 6.96875 141.647 7.63352 141.931 8.41193C142.221 9.19034 142.366 10.0653 142.366 11.0369V11.6847H132.002V10.7386H141.326C141.326 9.78977 141.133 8.93466 140.746 8.1733C140.36 7.41193 139.835 6.80682 139.17 6.35795C138.505 5.90909 137.758 5.68466 136.928 5.68466C136.059 5.68466 135.283 5.92898 134.602 6.41761C133.925 6.90057 133.388 7.55398 132.991 8.37784C132.599 9.2017 132.394 10.1222 132.377 11.1392V11.5653C132.377 12.6562 132.567 13.6364 132.948 14.5057C133.335 15.3693 133.886 16.054 134.602 16.5597C135.317 17.0597 136.175 17.3097 137.175 17.3097C137.891 17.3097 138.502 17.1903 139.008 16.9517C139.519 16.7074 139.937 16.4119 140.261 16.0653C140.585 15.7187 140.829 15.3835 140.994 15.0597L141.94 15.4432C141.741 15.8807 141.431 16.3182 141.011 16.7557C140.596 17.1875 140.067 17.5483 139.425 17.8381C138.789 18.1278 138.039 18.2727 137.175 18.2727ZM154.263 7.73011L153.3 7.9858C153.147 7.50852 152.928 7.09659 152.644 6.75C152.36 6.40341 152.002 6.13636 151.57 5.94886C151.144 5.75568 150.633 5.65909 150.036 5.65909C149.076 5.65909 148.289 5.89773 147.675 6.375C147.067 6.85227 146.763 7.47443 146.763 8.24148C146.763 8.86648 146.971 9.38352 147.386 9.79261C147.8 10.196 148.434 10.5028 149.286 10.7131L151.298 11.2159C152.332 11.4716 153.11 11.8864 153.633 12.4602C154.156 13.0284 154.417 13.7358 154.417 14.5824C154.417 15.304 154.221 15.9432 153.829 16.5C153.437 17.0568 152.894 17.4915 152.201 17.804C151.513 18.1165 150.712 18.2727 149.798 18.2727C148.576 18.2727 147.573 17.9886 146.789 17.4205C146.005 16.8466 145.502 16.0256 145.281 14.9574L146.278 14.7017C146.465 15.554 146.854 16.2045 147.445 16.6534C148.042 17.0966 148.823 17.3182 149.789 17.3182C150.857 17.3182 151.718 17.0653 152.371 16.5597C153.031 16.054 153.36 15.4062 153.36 14.6165C153.36 14.0142 153.167 13.5057 152.781 13.0909C152.394 12.6761 151.809 12.3722 151.025 12.179L148.937 11.6676C147.869 11.4062 147.067 10.9886 146.533 10.4148C145.999 9.83523 145.732 9.12216 145.732 8.27557C145.732 7.57102 145.917 6.9517 146.286 6.41761C146.656 5.88352 147.164 5.46591 147.812 5.16477C148.46 4.86364 149.201 4.71307 150.036 4.71307C151.144 4.71307 152.048 4.97443 152.746 5.49716C153.445 6.01989 153.951 6.7642 154.263 7.73011Z" fill="#CECECE"/>
</svg>
